# xmcd CD database file
#
# Track frame offsets:
#	150
#	12830
#	24517
#	34265
#	47650
#	66540
#	76697
#	81845
#	96977
#	104405
#	116112
#	128825
#	145145
#	159835
#	168517
#	178452
#	191700
#	211137
#
# Disc length: 2993 seconds
#
# Revision: 2
# Processed by: cddbd v1.5.1PL2 Copyright (c) Steve Scherf et al.
# Submitted via: CDex 1.51
#
DISCID=f80baf12
DTITLE=Various Artist - Roots Of The Blues
DYEAR=1977
DGENRE=Blues
TTITLE0=Louisiana - Henry Ratcliff - Field Song from Senegal - Bakari-Badji
TTITLE1=Po' Boy Blues John Dudley
TTITLE2=Katie left Memphis - Tangle Eye
TTITLE3=Berta, Berta - Leroy Miller and prisoner group
TTITLE4=Old Original Blues - Fred McDowell and Miles Pratcher
TTITLE5=Jim and John - Ed Young and Lonnie Young
TTITLE6=Emmaline, Take Your Time - Alec Askew
TTITLE7=Buttermilk - Miles Pratcher and Bob Pratcher
TTITLE8=Mama Lucy - Leroy Gary
TTITLE9=I'm Gonna Live Anyhow Till I Die - Miles Pratcher and Bob Pratcher
TTITLE10=No More, My Lord - Tangle Eye and prisoner group
TTITLE11=Lining Hymn and Prayer - Rev. Crenshaw and Congregation
TTITLE12=Death comes A-Creepin' in My Room - Fred McDowell
TTITLE13=Church-House Moan - Congregation of New Brown's Chapel, Memphis
TTITLE14=Beggin' the Blues - Bessie Jones
TTITLE15=Rolled and Tumbled - Rose Hemphill and Fred McDowell
TTITLE16=Goin' Down to the Races - Fred McDowell, Miles Pratcher and Fanny Davis
TTITLE17=Your Gotta Cut That Out - Forrest City Joe
EXTD=Collection of field recordings of Delta Blues.\nRecorded by Alan Lomax and his father. YEAR: 1977
EXTT0=
EXTT1=
EXTT2=
EXTT3=
EXTT4=
EXTT5=
EXTT6=
EXTT7=
EXTT8=
EXTT9=
EXTT10=
EXTT11=
EXTT12=
EXTT13=
EXTT14=
EXTT15=
EXTT16=
EXTT17=
PLAYORDER=
